<svg id="Слой_1" data-name="Слой 1" xmlns="http://www.w3.org/2000/svg" viewBox="0 0 811.14 106.78"><defs><style>.cls-1{fill:#404ca0;}.cls-2{fill:#9f9f9f;}</style></defs><title>Совинто_горизонт</title><path class="cls-1" d="M291.84,12.72a41.5,41.5,0,0,1,22.41,6.16,37.86,37.86,0,0,1,14.9,16.36l-17.26,6.39a22.85,22.85,0,0,0-8.29-8.69,22.22,22.22,0,0,0-11.76-3.19,21.33,21.33,0,0,0-16.13,6.84q-6.51,6.6-6.5,16.8a23.59,23.59,0,0,0,6.5,16.92A21.52,21.52,0,0,0,291.84,77a22.22,22.22,0,0,0,11.76-3.19,22.83,22.83,0,0,0,8.29-8.68l17.26,6.38A38.52,38.52,0,0,1,314.25,88a42,42,0,0,1-22.41,6q-17.47,0-29.36-11.65t-11.76-29q0-17.47,11.76-29t29.36-11.65"/><path class="cls-1" d="M346.4,82.41q-11.76-11.53-11.76-29t11.76-29q11.88-11.64,29.36-11.65t29.35,11.65Q417,35.92,417,53.39t-11.88,29q-11.88,11.66-29.35,11.65T346.4,82.41M375.76,77A21.9,21.9,0,0,0,392,70.31a23.63,23.63,0,0,0,6.5-16.92q0-10.19-6.5-16.8a22.58,22.58,0,0,0-32.38,0q-6.5,6.6-6.5,16.8a23.63,23.63,0,0,0,6.5,16.92A21.54,21.54,0,0,0,375.76,77"/><path class="cls-1" d="M466.51,92.61H425.84V14.18h38.43q10.75,0,18,6.27A19.67,19.67,0,0,1,489.48,36a20.25,20.25,0,0,1-7.06,15.58,21.57,21.57,0,0,1,7.5,7.84,21,21,0,0,1,2.69,10.42,20.59,20.59,0,0,1-7.51,16.25q-7.5,6.49-18.59,6.5M464,30.54H443.65V44.76H464a6.71,6.71,0,0,0,4.6-1.68,6.64,6.64,0,0,0,2.24-4.25,3.46,3.46,0,0,0,.11-1.12,7.14,7.14,0,0,0-2-5.16,6.68,6.68,0,0,0-5-2m2.24,29.8H443.65V76.25h22.63a7.53,7.53,0,0,0,5.61-2.3,8.26,8.26,0,0,0,0-11.31,7.49,7.49,0,0,0-5.61-2.3"/><polygon class="cls-1" points="518.27 92.61 501.69 92.61 501.69 14.18 519.5 14.18 519.5 62.91 555.35 14.18 571.94 14.18 571.94 92.61 554.12 92.61 554.12 44.2 518.27 92.61"/><polygon class="cls-1" points="600.28 92.61 582.47 92.61 582.47 14.18 600.28 14.18 600.28 44.76 634.23 44.76 634.23 14.18 651.93 14.18 651.93 92.61 634.23 92.61 634.23 61.12 600.28 61.12 600.28 92.61"/><polygon class="cls-1" points="683.75 30.54 659.55 30.54 659.55 14.18 725.65 14.18 725.65 30.54 701.45 30.54 701.45 92.61 683.75 92.61 683.75 30.54"/><path class="cls-1" d="M740.56,82.41q-11.77-11.53-11.77-29t11.77-29q11.87-11.64,29.35-11.65t29.35,11.65q11.88,11.55,11.88,29t-11.88,29q-11.88,11.66-29.35,11.65T740.56,82.41M769.91,77a21.92,21.92,0,0,0,16.25-6.72,23.62,23.62,0,0,0,6.49-16.92q0-10.19-6.49-16.8a22.58,22.58,0,0,0-32.38,0q-6.51,6.6-6.5,16.8a23.59,23.59,0,0,0,6.5,16.92A21.52,21.52,0,0,0,769.91,77"/><path class="cls-2" d="M173.83,17.07C164.73,6.67,148.68-1.87,130.65.49S101.83,15,99.2,18.15l9.43,10.13c9.21-9.93,19.67-15.25,32.75-13.35,16.05,2.33,29,15.52,31.06,31.11,2.52,19.18-5.56,35.47-21.24,42.83-14.71,6.91-30.35,2.76-42.76-10.92C95.22,63.37,81.81,49,68.35,34.6c-5.89-6.28-13.2-9.43-21.93-7.82C32.67,29.33,24.38,40.59,25,55.57,25.44,66.68,33.87,77,44.46,79.5,55.38,82.05,66.27,77.12,72,67.06c.83-1.46,1.63-2.94,2.65-4.8,8.49,9.15,16.66,17.81,24.66,26.62,14.85,16.36,35,22,53.83,14.89,19.65-7.39,33.25-26.93,33.82-48a62,62,0,0,0-2.83-20.12,53.48,53.48,0,0,0-10.25-18.58M49.19,62.53a9.17,9.17,0,1,1,9.16-9.16,9.17,9.17,0,0,1-9.16,9.16"/><path class="cls-1" d="M161.52,47.46c-3.28-14.92-17.26-24-31.15-20.19-8.85,2.46-14.25,8.73-17.88,17.28-9.06-9.78-17.83-19.34-26.71-28.8a49.72,49.72,0,0,0-18-12.51A48,48,0,0,0,49.72,0C28.18.32,14.15,15.54,12.92,16.92.65,30.66.09,46.65,0,51.36c0,2.9.46,31.94,23.24,47,21.05,14,51,9.42,64.28-10.25-3-3.1-6-6.29-9.15-9.64C77,79.78,76,80.61,75.14,81.45,57.52,97.91,32.78,94.89,19.83,74.68,9.16,58,13,34.45,28.28,22.39c15.56-12.27,34.47-10.27,49.28,5.46,13.61,14.45,27,29.09,40.53,43.64,5.72,6.16,12.64,9.68,21.18,8.52,15.58-2.1,25.66-17,22.25-32.55m-24,15.07a9.28,9.28,0,1,1,9.28-9.28,9.28,9.28,0,0,1-9.28,9.28"/></svg>