<svg id="Слой_1" data-name="Слой 1" xmlns="http://www.w3.org/2000/svg" viewBox="0 0 830.91 476.44"><defs><style>.cls-1{fill:#404ca0;}.cls-2{fill:#9f9f9f;}</style></defs><title>Совинто_</title><path class="cls-1" d="M61,355.84A61.4,61.4,0,0,1,94.19,365a56.19,56.19,0,0,1,22.09,24.25L90.7,398.7a33.93,33.93,0,0,0-12.29-12.87A33,33,0,0,0,61,381.09,31.66,31.66,0,0,0,37,391.23q-9.63,9.79-9.63,24.91,0,15,9.63,25.09a31.94,31.94,0,0,0,23.92,10,33,33,0,0,0,17.45-4.73A34,34,0,0,0,90.7,433.59l25.58,9.47a57.19,57.19,0,0,1-22.09,24.41q-14.62,9-33.23,9-25.91,0-43.52-17.27Q0,442.05,0,416.14t17.44-43Q35.05,355.84,61,355.84"/><path class="cls-1" d="M141.86,459.17q-17.43-17.12-17.44-43t17.44-43q17.61-17.28,43.53-17.28t43.52,17.28q17.61,17.11,17.61,43t-17.61,43q-17.61,17.28-43.52,17.27t-43.53-17.27m43.53-8a32.46,32.46,0,0,0,24.08-10q9.63-10.14,9.64-25.09,0-15.11-9.64-24.91a33.47,33.47,0,0,0-48,0q-9.65,9.79-9.64,24.91,0,15,9.64,25.09a31.92,31.92,0,0,0,23.92,10"/><path class="cls-1" d="M319.94,474.29h-60.3V358h57q15.94,0,26.74,9.3A29.15,29.15,0,0,1,354,390.39q0,13.64-10.46,23.1a32,32,0,0,1,11.13,11.62,31.3,31.3,0,0,1,4,15.45,30.54,30.54,0,0,1-11.13,24.09q-11.13,9.63-27.57,9.64m-3.65-92H286.05v21.09h30.24a10,10,0,0,0,6.81-2.49,9.82,9.82,0,0,0,3.32-6.31,5,5,0,0,0,.16-1.66,10.53,10.53,0,0,0-2.9-7.64,9.86,9.86,0,0,0-7.39-3m3.32,44.18H286.05V450h33.56a11.11,11.11,0,0,0,8.3-3.4,12.23,12.23,0,0,0,0-16.78,11.12,11.12,0,0,0-8.3-3.41"/><polygon class="cls-1" points="396.68 474.29 372.1 474.29 372.1 358 398.51 358 398.51 430.26 451.67 358 476.25 358 476.25 474.29 449.84 474.29 449.84 402.52 396.68 474.29"/><polygon class="cls-1" points="518.28 474.29 491.87 474.29 491.87 358 518.28 358 518.28 403.35 568.61 403.35 568.61 358 594.86 358 594.86 474.29 568.61 474.29 568.61 427.6 518.28 427.6 518.28 474.29"/><polygon class="cls-1" points="642.04 382.26 606.16 382.26 606.16 358 704.16 358 704.16 382.26 668.28 382.26 668.28 474.29 642.04 474.29 642.04 382.26"/><path class="cls-1" d="M726.26,459.17q-17.44-17.12-17.44-43t17.44-43q17.61-17.28,43.52-17.28t43.52,17.28q17.61,17.11,17.61,43t-17.61,43q-17.61,17.28-43.52,17.27t-43.52-17.27m43.52-8a32.5,32.5,0,0,0,24.09-10q9.63-10.14,9.63-25.09,0-15.11-9.63-24.91a33.48,33.48,0,0,0-48,0q-9.63,9.79-9.63,24.91,0,15,9.63,25.09a31.92,31.92,0,0,0,23.92,10"/><path class="cls-2" d="M589.92,37.07c-19.76-22.58-54.61-41.13-93.75-36-39.32,5.14-62.56,31.49-68.26,38.35l20.47,22c20-21.56,42.71-33.11,71.09-29,34.85,5.07,63,33.69,67.42,67.53,5.48,41.64-12,77-46.09,93-31.95,15-65.9,6-92.84-23.71q-43-47.48-87-94.1c-12.79-13.64-28.65-20.47-47.62-17-29.83,5.52-47.83,30-46.51,62.49,1,24.13,19.27,46.61,42.26,52,23.72,5.52,47.35-5.17,59.69-27,1.79-3.16,3.52-6.36,5.76-10.41C392.94,155,410.67,173.81,428,192.94c32.25,35.52,75.92,47.73,116.85,32.33,42.66-16.05,72.19-58.46,73.42-104.21a134,134,0,0,0-6.14-43.67C610,70.81,604,53.16,589.92,37.07M319.34,135.74a19.89,19.89,0,1,1,19.89-19.89,19.88,19.88,0,0,1-19.89,19.89"/><path class="cls-1" d="M563.19,103c-7.11-32.4-37.47-52.2-67.61-43.83-19.21,5.34-30.95,19-38.83,37.5-19.66-21.22-38.69-42-58-62.5C387.17,21.86,374.14,12.74,359.61,7a104.47,104.47,0,0,0-39.12-7c-46.76.69-77.2,33.73-79.88,36.73-26.63,29.82-27.84,64.52-28,74.75-.12,6.3,1,69.33,50.43,102.12,45.72,30.32,110.69,20.46,139.55-22.24l-19.86-20.94c-3.05,2.77-5.06,4.55-7,6.38-38.23,35.74-91.94,29.17-120.06-14.7C232.45,126,240.72,74.79,274,48.6c33.79-26.63,74.83-22.29,107,11.85,29.55,31.37,58.66,63.15,88,94.73,12.42,13.38,27.43,21,46,18.51,33.83-4.57,55.71-36.94,48.3-70.66m-52.11,32.71a20.15,20.15,0,1,1,20.14-20.14,20.15,20.15,0,0,1-20.14,20.14"/></svg>